:SAMPLES-PER-SECOND 30
:FULLY-SPECIFIED
:DEGREES
342
root  63.2402 38.8697 12.8391 -172.128 84.1833 -175.157
RightUpLeg  -15.2329 -3.07187 -3.66561
RightLeg  12.9471 12.4957 2.01066
RightFoot  0.739768 -0.43745 4.18043
RightToes  -6.98493e-010 0 -3.6325e-017
Spine  18.3513 -0.443253 2.98747
Spine1  11.2545 0.549365 -2.10806
HEad  -35.178 4.7306 -3.39394
LeftShoulder1  1.95037 -5.23029 -15.5414
LeftArm  -39.4596 -68.9654 -7.68081
LeftForeArm  -12.9549 -4.23279 -2.58794
LeftHand  0.0146731 7.99285 2.44006
RightShoulder  0.837676 3.45905 4.09697
RightArm  3.11268 82.2712 50.7315
RightForeArm  -46.9746 -5.69108 7.16247
RightHand  -0.34579 6.50791 -3.71189
LeftUpLeg  -19.6766 7.5502 -1.15345
LeftLeg  18.7104 0.539253 0.533765
LeftFoot  2.07594 -0.450699 3.72141
LeftToes  7.91257e-010 -1.64976e-010 -3.02228e-011
343
root  63.255 38.9004 12.7076 -171.285 84.4295 -174.295
RightUpLeg  -14.8827 -3.54714 -3.70704
RightLeg  12.2773 13.2927 1.97548
RightFoot  0.991115 -0.480703 4.50627
RightToes  -6.98493e-010 0 -3.6325e-017
Spine  18.3748 -0.492901 3.12807
Spine1  11.9669 0.618643 -2.37942
HEad  -35.848 4.57264 -3.74589
LeftShoulder1  1.91502 -5.28899 -14.9379
LeftArm  -42.0137 -69.7284 -5.28121
LeftForeArm  -11.6461 -4.06675 -2.27037
LeftHand  0.0185192 8.1472 2.49129
RightShoulder  0.808365 3.70878 3.15407
RightArm  -0.00845161 83.0221 47.245
RightForeArm  -46.8975 -5.71013 7.25763
RightHand  -0.269229 6.40963 -2.97953
LeftUpLeg  -19.676 7.92693 -1.29604
LeftLeg  18.8453 0.488551 0.516256
LeftFoot  2.27169 -0.473228 3.8486
LeftToes  7.91257e-010 -1.64976e-010 -3.02228e-011
344
root  63.2486 38.9356 12.5655 -166.524 84.6095 -169.711
RightUpLeg  -14.4983 -3.79504 -3.23511
RightLeg  10.9492 13.8256 1.38196
RightFoot  1.59402 -0.556044 4.99901
RightToes  -6.98493e-010 0 -3.6325e-017
Spine  18.6992 -0.475576 3.8701
Spine1  11.5265 0.879592 -2.85828
HEad  -36.0048 4.34071 -3.94907
LeftShoulder1  1.9209 -5.38017 -14.7673
LeftArm  -43.7861 -70.8298 -3.37716
LeftForeArm  -9.53329 -3.77239 -2.36393
LeftHand  0.0170525 8.14742 2.43226
RightShoulder  0.811572 3.76466 3.10858
RightArm  -3.46093 83.2174 43.0619
RightForeArm  -46.4217 -5.75752 7.4239
RightHand  -0.201869 6.14184 -2.37127
LeftUpLeg  -19.8253 8.35534 -1.15582
LeftLeg  18.7231 0.402462 0.480639
LeftFoot  2.29311 -0.481742 3.9119
LeftToes  7.91257e-010 -1.64976e-010 -3.02228e-011
345
root  63.2119 38.9678 12.3752 -164.461 85.5579 -167.734
RightUpLeg  -14.4163 -4.00882 -3.28607
RightLeg  10.1243 15.094 1.13884
RightFoot  2.26497 -0.606828 5.21069
RightToes  -6.98493e-010 0 -3.6325e-017
Spine  19.0267 -0.174661 4.07046
Spine1  11.2295 1.40846 -3.42215
HEad  -36.4761 3.94623 -3.84712
LeftShoulder1  1.92268 -5.45692 -14.5886
LeftArm  -45.4286 -71.6218 -1.47431
LeftForeArm  -8.81083 -3.44869 -2.47989
LeftHand  0.0173567 8.23114 2.39318
RightShoulder  0.824374 3.76944 3.30372
RightArm  -7.21041 83.5785 38.7778
RightForeArm  -46.983 -5.76017 7.57807
RightHand  -0.206298 6.79428 -2.31692
LeftUpLeg  -19.6707 9.58783 -1.59183
LeftLeg  18.2406 0.365535 0.457919
LeftFoot  2.58531 -0.593212 4.72235
LeftToes  7.91257e-010 -1.64976e-010 -3.02228e-011
346
root  63.1425 38.9937 12.2288 -156.538 85.8635 -159.84
RightUpLeg  -13.9369 -4.4282 -2.93346
RightLeg  8.66592 15.9912 0.942035
RightFoot  3.03428 -0.68416 5.58733
RightToes  -6.98493e-010 0 -3.6325e-017
Spine  18.9099 -0.0339471 4.05965
Spine1  12.0956 1.475 -2.98508
HEad  -38.0903 4.38757 -4.95007
LeftShoulder1  1.88027 -5.11394 -14.9796
LeftArm  -48.1709 -72.2863 1.1366
LeftForeArm  -9.21589 -3.78155 -2.28375
LeftHand  0.0203747 8.42994 2.3909
RightShoulder  0.768265 3.92674 2.16622
RightArm  -14.7187 84.0016 31.3355
RightForeArm  -46.6438 -5.70976 7.1926
RightHand  -0.217034 5.93459 -2.54875
LeftUpLeg  -19.7822 11.0362 -1.4961
LeftLeg  18.1091 -0.628769 0.0699611
LeftFoot  2.99609 -0.740085 5.73665
LeftToes  7.91257e-010 -1.64976e-010 -3.02228e-011
347
root  63.013 39.0219 12.074 -144.78 86.6006 -148.245
RightUpLeg  -13.8885 -4.77511 -2.65683
RightLeg  7.38772 17.4216 0.867461
RightFoot  4.04829 -0.764547 5.85335
RightToes  -6.98493e-010 0 -3.6325e-017
Spine  19.041 0.220771 4.08415
Spine1  12.1077 1.84251 -3.21451
HEad  -38.9833 4.75615 -5.6259
LeftShoulder1  1.8765 -5.21274 -14.6625
LeftArm  -49.7949 -72.1542 3.07477
LeftForeArm  -8.55815 -4.29198 -2.24892
LeftHand  0.0124402 8.16558 2.27253
RightShoulder  0.775805 4.11299 1.99121
RightArm  -20.2657 84.1718 25.6325
RightForeArm  -46.0466 -5.69607 6.9658
RightHand  -0.204443 6.29946 -2.36682
LeftUpLeg  -19.8059 12.8294 -1.51691
LeftLeg  17.439 -1.15163 -0.230022
LeftFoot  3.14236 -0.813307 6.24397
LeftToes  7.91257e-010 -1.64976e-010 -3.02228e-011
